<svg width="33" height="33" viewBox="0 0 33 33" fill="none" xmlns="http://www.w3.org/2000/svg">
<path d="M18.291 10.975L23.491 19.975C24.291 21.275 23.591 22.375 22.091 22.375H11.691C10.191 22.375 9.59103 21.275 10.291 19.975L15.491 10.975C16.291 9.675 17.491 9.675 18.291 10.975Z" fill="#F35714"/>
<path fill-rule="evenodd" clip-rule="evenodd" d="M16.5 31C24.5081 31 31 24.5081 31 16.5C31 8.49187 24.5081 2 16.5 2C8.49187 2 2 8.49187 2 16.5C2 24.5081 8.49187 31 16.5 31ZM16.5 33C25.6127 33 33 25.6127 33 16.5C33 7.3873 25.6127 0 16.5 0C7.3873 0 0 7.3873 0 16.5C0 25.6127 7.3873 33 16.5 33Z" fill="#F35714"/>
</svg>
