<svg width="26" height="26" viewBox="0 0 26 26" fill="none" xmlns="http://www.w3.org/2000/svg">
<path fill-rule="evenodd" clip-rule="evenodd" d="M0.442707 22.4535C-0.146754 23.0356 -0.146756 23.9793 0.442706 24.5614L1.12683 25.237C1.71629 25.8191 2.672 25.8191 3.26146 25.237L12.8354 15.7828L22.7373 25.5609C23.3268 26.143 24.2825 26.143 24.8719 25.5609L25.5561 24.8854C26.1455 24.3033 26.1455 23.3595 25.5561 22.7775L15.6541 12.9994L25.556 3.22128C26.1455 2.6392 26.1455 1.69545 25.556 1.11336L24.8719 0.437788C24.2824 -0.1443 23.3267 -0.144302 22.7373 0.437786L12.8354 10.2159L3.26149 0.76174C2.67203 0.179652 1.71633 0.179651 1.12687 0.761739L0.442738 1.43731C-0.146723 2.0194 -0.146725 2.96315 0.442736 3.54523L10.0166 12.9993L0.442707 22.4535Z" fill="#4A914E"/>
</svg>
